<svg xmlns="http://www.w3.org/2000/svg" viewBox="0 0 128.79 43.43"><defs><style>.cls-1,.cls-2{fill:#fff;}.cls-2{font-size:12px;font-family:AirbnbCerealApp-Medium, Airbnb Cereal App;font-weight:500;}.cls-3{letter-spacing:-0.01em;}.cls-4{letter-spacing:0em;}.cls-5{letter-spacing:-0.02em;}.cls-6{letter-spacing:0em;}.cls-7{letter-spacing:0em;}.cls-8{fill:none;stroke:#fff;stroke-miterlimit:10;}</style></defs><g id="Capa_2" data-name="Capa 2"><g id="Capa_1-2" data-name="Capa 1"><rect class="cls-1" x="22.51" y="22.14" width="4.84" height="4.84" transform="translate(-10.06 24.82) rotate(-45)"/><polygon class="cls-1" points="24.93 21.03 24.93 21.03 24.93 21.03 24.93 21.03"/><path class="cls-1" d="M37.13,16.21a5.11,5.11,0,0,0-.45-.48l1.44-3.12a11.1,11.1,0,0,1-2.34.3h-.23a9.9,9.9,0,0,1-1.45-.1,10.39,10.39,0,0,1-3.05-.62c-.14-.06-.27-.13-.4-.2s-.88-.46-1.08-.59a14.09,14.09,0,0,0-4.72-1.19A9.54,9.54,0,0,0,20.3,11.4a11.67,11.67,0,0,1-5.89,1.51H14.1a8.77,8.77,0,0,1-1.15-.1,9.92,9.92,0,0,1-1.36-.27l.62,1.26,1,2c-.14.14-.28.29-.41.44A7.31,7.31,0,0,0,11,21,7.07,7.07,0,0,0,18,28.17a7.23,7.23,0,0,0,7-7.14h0a7.25,7.25,0,0,0,7,7.14A7.07,7.07,0,0,0,38.86,21,7.31,7.31,0,0,0,37.13,16.21ZM18,25.84a4.82,4.82,0,0,1,0-9.63,4.41,4.41,0,0,1,1.26.18,4.77,4.77,0,0,1,3.36,4.28c0,.12,0,.24,0,.36A4.73,4.73,0,0,1,18,25.84Zm14,0A4.72,4.72,0,0,1,27.3,21a2.75,2.75,0,0,1,0-.41,4.79,4.79,0,0,1,3.25-4.2,4.4,4.4,0,0,1,1.36-.21,4.82,4.82,0,0,1,0,9.63Z"/><polygon class="cls-1" points="24.93 19.68 24.93 19.68 24.93 19.68 24.93 19.68"/><path class="cls-1" d="M34.2,4.42v7.8h-.1a9.8,9.8,0,0,1-3.05-.69l-.4-.22c-.22-.13-.88-.51-1.08-.66-2.93-1.43-2.79-1.49-4.63-1.49s-2,.06-4.64,1.49a10.07,10.07,0,0,1-4.48,1.58h-.16V4.42Z"/><rect class="cls-1" x="9.26" y="0.95" width="31.79" height="3.47" rx="1.45"/><ellipse class="cls-1" cx="18.16" cy="21.38" rx="2.25" ry="2.27"/><ellipse class="cls-1" cx="31.78" cy="21.38" rx="2.25" ry="2.27"/><path class="cls-1" d="M49.94,31a5.77,5.77,0,0,1-1.26,2.59l-7.06,1.3L27.25,37.53v1.78a.91.91,0,0,1-.9.92H23.6a.92.92,0,0,1-.91-.92V37.53L8.32,34.89,1,33.34A4.57,4.57,0,0,1,0,31l10.28,3.08,14.58,2.68,14.57-2.68Z"/><path class="cls-1" d="M45.08,32l-4.32.84L24.74,36l16.61-5.48,3.32-1.06A8,8,0,0,1,45.08,32Z"/><path class="cls-1" d="M44.54,28.25l-4.2,1.5-15.6,5.52,16-8.07,1.4-.52A2,2,0,0,1,44.54,28.25Z"/><path class="cls-1" d="M4.4,32l4.32.84,16,3.12L8.13,30.47,4.58,29.25C4.49,30.37,4.41,30.88,4.4,32Z"/><path class="cls-1" d="M4.93,28.25l4.21,1.5,15.6,5.52L8.79,27.2l-1.54-.51A1.84,1.84,0,0,0,4.93,28.25Z"/><rect class="cls-1" x="9.18" y="0.98" width="1.55" height="6.88" rx="0.65"/><path class="cls-1" d="M9,7.33a2.66,2.66,0,0,1,.19-.54l.05-.09a.86.86,0,0,1,.81-.4,1.11,1.11,0,0,1,1,.69h0V7a1.84,1.84,0,0,1,.16.58h0a6.32,6.32,0,0,1,.1,1.57,4.47,4.47,0,0,1-.2,1.08,1.31,1.31,0,0,1-.27.49.62.62,0,0,1-.49.24v0a.48.48,0,0,0,.23-.16.61.61,0,0,1-.44.19v0h-.08v0a.61.61,0,0,0,.33-.34,1.69,1.69,0,0,0,.14-.45c0-.05,0-.1,0-.14s-.06.19-.1.28a1.64,1.64,0,0,1-.3.47.59.59,0,0,1-.51.21v0l.11,0H9.77v0a.48.48,0,0,0,.23-.16.58.58,0,0,1-.45.19v0H9.49v0a.6.6,0,0,0,.34-.34A2,2,0,0,0,10,10s0-.11,0-.16-.06.18-.1.27a1.39,1.39,0,0,1-.3.47.59.59,0,0,1-.5.21v0a.48.48,0,0,0,.22-.13.47.47,0,0,1-.33.1v0a.56.56,0,0,0,.23-.16.57.57,0,0,1-.44.18H8.7v0A.56.56,0,0,0,9,10.35a2.35,2.35,0,0,0,.14-.45c0-.07,0-.13,0-.19a1.25,1.25,0,0,1-.09.25,1.53,1.53,0,0,1-.29.47.63.63,0,0,1-.51.21v0a.6.6,0,0,0,.35-.31c.08-.14,0-.3,0-.45.07-.32.07-.65.11-1s.12-.74.16-1.09A3.2,3.2,0,0,1,9,7.33Z"/><text class="cls-2" transform="translate(58.58 10.26)">Ho<tspan class="cls-3" x="16.14" y="0">r</tspan><tspan class="cls-4" x="20.64" y="0">arios </tspan></text><text class="cls-2" transform="translate(58.58 25.24)"><tspan class="cls-5">A</tspan><tspan x="8.63" y="0">cadémi</tspan><tspan class="cls-6" x="50.41" y="0">c</tspan><tspan class="cls-7" x="57.1" y="0">os</tspan></text><text class="cls-2" transform="translate(58.58 40.22)">FEI</text><line class="cls-8" x1="53.53" y1="1.05" x2="53.53" y2="40.05"/></g></g></svg>