<svg xmlns="http://www.w3.org/2000/svg" viewBox="0 0 215.1 39.28"><defs><style>.cls-1{fill:#fff;}</style></defs><g id="Capa_2" data-name="Capa 2"><g id="Capa_1-2" data-name="Capa 1"><path class="cls-1" d="M60.7,6.86h5.94V8.34H62.73v2.78h3.73v1.5H62.73v4.43h-2Z"/><path class="cls-1" d="M74.16,12.8v4.25H72.47l0-1.2a3.28,3.28,0,0,1-1.1,1,2.86,2.86,0,0,1-1.42.36,2.5,2.5,0,0,1-1.81-.66,2.24,2.24,0,0,1-.69-1.7,2.05,2.05,0,0,1,1-1.86,5.66,5.66,0,0,1,2.95-.62h1V12.3a1.48,1.48,0,0,0-.48-1.18,2,2,0,0,0-1.36-.42,3.83,3.83,0,0,0-1,.15,5.8,5.8,0,0,0-1.1.45l0-1.36a7.8,7.8,0,0,1,1.31-.4,6.44,6.44,0,0,1,1.3-.13,3.24,3.24,0,0,1,2.45.81A3.65,3.65,0,0,1,74.16,12.8Zm-2.51.69a3.72,3.72,0,0,0-1.76.33,1.05,1.05,0,0,0-.59,1,1,1,0,0,0,.34.79,1.23,1.23,0,0,0,.88.31,1.69,1.69,0,0,0,1.3-.56,2,2,0,0,0,.51-1.44v-.4Z"/><path class="cls-1" d="M81.86,9.79l-.15,1.5a8.71,8.71,0,0,0-.86-.29,2.65,2.65,0,0,0-.64-.09,2.25,2.25,0,0,0-2.38,2.4,2.4,2.4,0,0,0,.65,1.75,2.26,2.26,0,0,0,1.71.69,2.63,2.63,0,0,0,.77-.12,5.42,5.42,0,0,0,.88-.37l.07,1.53a10.69,10.69,0,0,1-1.25.36,4.35,4.35,0,0,1-.84.1,4,4,0,0,1-2.91-1.09,4,4,0,0,1-1.09-2.9A3.69,3.69,0,0,1,77,10.5a3.91,3.91,0,0,1,2.86-1.09,6.91,6.91,0,0,1,1.69.29Z"/><path class="cls-1" d="M83.19,9.6h1.92v4a2.58,2.58,0,0,0,.36,1.52,1.3,1.3,0,0,0,1.11.49,1.48,1.48,0,0,0,1.31-.68,3.65,3.65,0,0,0,.44-2V9.6h1.93v7.45H88.51V15.62a3,3,0,0,1-1.09,1.16,3.05,3.05,0,0,1-1.55.39,2.48,2.48,0,0,1-2-.82A3.65,3.65,0,0,1,83.19,14Z"/><path class="cls-1" d="M92.19,6.06H94.1v11H92.19Z"/><path class="cls-1" d="M98.62,7.18V9.6h1.8V11h-1.8v3.26a2.13,2.13,0,0,0,.26,1.2,1,1,0,0,0,.85.36l.34,0a2.24,2.24,0,0,0,.39-.1l0,1.34a4.67,4.67,0,0,1-.65.13c-.22,0-.45,0-.67,0a2.38,2.38,0,0,1-1.89-.66,3.22,3.22,0,0,1-.58-2.17V11H95.23V9.6h1.56V7.8Z"/><path class="cls-1" d="M108.12,12.8v4.25h-1.69l0-1.2a3.22,3.22,0,0,1-1.11,1,2.83,2.83,0,0,1-1.42.36,2.52,2.52,0,0,1-1.81-.66,2.24,2.24,0,0,1-.69-1.7,2,2,0,0,1,1-1.86,5.59,5.59,0,0,1,2.94-.62h1V12.3a1.48,1.48,0,0,0-.48-1.18,2,2,0,0,0-1.35-.42,3.77,3.77,0,0,0-1,.15,5.32,5.32,0,0,0-1.1.45l0-1.36a7.53,7.53,0,0,1,1.31-.4,6.3,6.3,0,0,1,1.3-.13,3.26,3.26,0,0,1,2.45.81A3.7,3.7,0,0,1,108.12,12.8Zm-2.51.69a3.69,3.69,0,0,0-1.76.33,1,1,0,0,0-.59,1,1,1,0,0,0,.33.79,1.25,1.25,0,0,0,.88.31,1.69,1.69,0,0,0,1.3-.56,2,2,0,0,0,.51-1.44v-.4Z"/><path class="cls-1" d="M115.22,6.06h1.91v11h-1.72v-1.5a3.09,3.09,0,0,1-1.13,1.21,3,3,0,0,1-1.56.41,2.76,2.76,0,0,1-2.26-1.11,4.44,4.44,0,0,1-.89-2.86,4.21,4.21,0,0,1,.86-2.75,2.77,2.77,0,0,1,2.24-1,3.26,3.26,0,0,1,1.48.32,3,3,0,0,1,1.07,1Zm-1.91,4.79a1.5,1.5,0,0,0-1.26.67,2.92,2.92,0,0,0-.49,1.77,2.89,2.89,0,0,0,.48,1.76,1.53,1.53,0,0,0,1.32.65,1.62,1.62,0,0,0,1.34-.65,2.79,2.79,0,0,0,.51-1.76,2.81,2.81,0,0,0-.51-1.78A1.67,1.67,0,0,0,113.31,10.85Z"/><path class="cls-1" d="M128.9,6.06h1.9v11h-1.72v-1.5A3.07,3.07,0,0,1,128,16.76a3,3,0,0,1-1.57.41,2.76,2.76,0,0,1-2.25-1.11,4.39,4.39,0,0,1-.89-2.86,4.21,4.21,0,0,1,.86-2.75,2.77,2.77,0,0,1,2.24-1,3.25,3.25,0,0,1,1.47.32,3,3,0,0,1,1.08,1ZM127,10.85a1.5,1.5,0,0,0-1.26.67,3,3,0,0,0-.48,1.77,2.89,2.89,0,0,0,.48,1.76,1.53,1.53,0,0,0,1.31.65,1.64,1.64,0,0,0,1.35-.65,2.85,2.85,0,0,0,.5-1.76,2.81,2.81,0,0,0-.51-1.78A1.66,1.66,0,0,0,127,10.85Z"/><path class="cls-1" d="M139.42,13.25v.6h-5.25a2.06,2.06,0,0,0,.73,1.48,2.58,2.58,0,0,0,1.71.54,4.66,4.66,0,0,0,1.13-.13,4.56,4.56,0,0,0,1.06-.41V16.8a5.38,5.38,0,0,1-1.18.33,7.21,7.21,0,0,1-1.35.12,3.87,3.87,0,0,1-2.91-1.08,4,4,0,0,1-1.05-3,3.76,3.76,0,0,1,1-2.74A3.55,3.55,0,0,1,136,9.41a3.22,3.22,0,0,1,2.53,1A4.09,4.09,0,0,1,139.42,13.25Zm-1.73-.59a2.58,2.58,0,0,0-.53-1.47,1.46,1.46,0,0,0-1.18-.53,1.56,1.56,0,0,0-1.22.53,2.54,2.54,0,0,0-.59,1.47Z"/><path class="cls-1" d="M145.28,6.86h6.23V8.32h-4.22V11h4v1.5h-4v3h4.37v1.54h-6.38Z"/><path class="cls-1" d="M158.49,6.06h1.91v11h-1.72v-1.5a3.09,3.09,0,0,1-1.13,1.21,3,3,0,0,1-1.56.41,2.77,2.77,0,0,1-2.26-1.11,4.44,4.44,0,0,1-.88-2.86,4.2,4.2,0,0,1,.85-2.75,2.79,2.79,0,0,1,2.25-1,3.25,3.25,0,0,1,1.47.32,2.88,2.88,0,0,1,1.07,1Zm-1.91,4.79a1.5,1.5,0,0,0-1.26.67,3,3,0,0,0-.49,1.77,2.83,2.83,0,0,0,.49,1.76,1.52,1.52,0,0,0,1.31.65,1.61,1.61,0,0,0,1.34-.65,2.79,2.79,0,0,0,.51-1.76,2.81,2.81,0,0,0-.51-1.78A1.66,1.66,0,0,0,156.58,10.85Z"/><path class="cls-1" d="M162.26,9.6h1.92v4a2.58,2.58,0,0,0,.36,1.52,1.3,1.3,0,0,0,1.11.49,1.47,1.47,0,0,0,1.3-.68,3.55,3.55,0,0,0,.45-2V9.6h1.92v7.45h-1.75V15.62a3,3,0,0,1-1.08,1.16,3.06,3.06,0,0,1-1.56.39,2.46,2.46,0,0,1-2-.82,3.59,3.59,0,0,1-.68-2.38Z"/><path class="cls-1" d="M176.86,9.79l-.15,1.5a8,8,0,0,0-.87-.29,2.64,2.64,0,0,0-.63-.09,2.31,2.31,0,0,0-1.73.66,2.35,2.35,0,0,0-.66,1.74,2.41,2.41,0,0,0,.66,1.75,2.22,2.22,0,0,0,1.7.69,2.63,2.63,0,0,0,.77-.12,5.07,5.07,0,0,0,.88-.37l.07,1.53a10.64,10.64,0,0,1-1.24.36,4.36,4.36,0,0,1-.85.1,3.75,3.75,0,0,1-4-4,3.69,3.69,0,0,1,1.12-2.76,3.92,3.92,0,0,1,2.86-1.09,6.83,6.83,0,0,1,1.69.29Z"/><path class="cls-1" d="M184.6,12.8v4.25h-1.7l0-1.2a3.31,3.31,0,0,1-1.11,1,2.86,2.86,0,0,1-1.42.36,2.5,2.5,0,0,1-1.81-.66,2.24,2.24,0,0,1-.69-1.7,2,2,0,0,1,1-1.86,5.59,5.59,0,0,1,2.94-.62h1V12.3a1.48,1.48,0,0,0-.48-1.18,2,2,0,0,0-1.36-.42,3.83,3.83,0,0,0-1,.15,5.8,5.8,0,0,0-1.1.45l0-1.36a7.9,7.9,0,0,1,1.32-.4,6.3,6.3,0,0,1,1.3-.13,3.26,3.26,0,0,1,2.45.81A3.7,3.7,0,0,1,184.6,12.8Zm-2.51.69a3.76,3.76,0,0,0-1.77.33,1.05,1.05,0,0,0-.59,1,1,1,0,0,0,.34.79,1.23,1.23,0,0,0,.88.31,1.69,1.69,0,0,0,1.3-.56,2,2,0,0,0,.51-1.44v-.4Z"/><path class="cls-1" d="M192,9.79l-.15,1.5A8,8,0,0,0,191,11a2.64,2.64,0,0,0-.63-.09,2.27,2.27,0,0,0-2.39,2.4,2.41,2.41,0,0,0,.66,1.75,2.25,2.25,0,0,0,1.7.69,2.69,2.69,0,0,0,.78-.12,5,5,0,0,0,.87-.37l.08,1.53a11.28,11.28,0,0,1-1.25.36,4.35,4.35,0,0,1-.84.1,3.75,3.75,0,0,1-4-4,3.72,3.72,0,0,1,1.12-2.76A3.94,3.94,0,0,1,190,9.41a7,7,0,0,1,1.7.29Z"/><path class="cls-1" d="M193.52,6.27h1.91V8.12h-1.91Zm0,3.33h1.91v7.45h-1.91Z"/><path class="cls-1" d="M200.91,9.41a4,4,0,0,1,2.91,1,3.86,3.86,0,0,1,1.06,2.87,3.87,3.87,0,0,1-1.06,2.87,4,4,0,0,1-2.91,1.06A3.92,3.92,0,0,1,198,16.2a3.89,3.89,0,0,1-1-2.88,3.85,3.85,0,0,1,1-2.87A4,4,0,0,1,200.91,9.41Zm0,1.38a1.72,1.72,0,0,0-1.41.7,2.88,2.88,0,0,0-.54,1.82,2.84,2.84,0,0,0,.54,1.8,1.8,1.8,0,0,0,2.83,0,2.89,2.89,0,0,0,.53-1.81,2.89,2.89,0,0,0-.54-1.83A1.71,1.71,0,0,0,200.91,10.79ZM201.23,6h1.68L200.72,8.6h-.92Z"/><path class="cls-1" d="M213.44,12.62v4.43h-1.93V13a2.7,2.7,0,0,0-.35-1.53,1.28,1.28,0,0,0-1.11-.49,1.52,1.52,0,0,0-1.28.63,2.82,2.82,0,0,0-.47,1.71v3.7h-1.91V9.6h1.74V11a2.88,2.88,0,0,1,2.65-1.54,2.44,2.44,0,0,1,2,.81A3.71,3.71,0,0,1,213.44,12.62Z"/><path class="cls-1" d="M67.28,26.08v.61H62a2,2,0,0,0,.73,1.48,2.58,2.58,0,0,0,1.71.54,4.32,4.32,0,0,0,1.13-.14,4.7,4.7,0,0,0,1.06-.4v1.47a6.2,6.2,0,0,1-1.18.33,8.2,8.2,0,0,1-1.35.11A3.93,3.93,0,0,1,61.22,29a4.09,4.09,0,0,1-1-3,3.78,3.78,0,0,1,1-2.74,3.6,3.6,0,0,1,2.67-1,3.2,3.2,0,0,1,2.52,1A4.13,4.13,0,0,1,67.28,26.08Zm-1.73-.58A2.54,2.54,0,0,0,65,24a1.47,1.47,0,0,0-1.17-.53,1.58,1.58,0,0,0-1.22.53A2.57,2.57,0,0,0,62,25.5Z"/><path class="cls-1" d="M73.47,19.69h2v10.2h-2Z"/><path class="cls-1" d="M82.82,18.9h1.9v11H83v-1.5a3.14,3.14,0,0,1-1.12,1.21,3,3,0,0,1-1.57.4,2.76,2.76,0,0,1-2.25-1.11A4.39,4.39,0,0,1,77.17,26,4.2,4.2,0,0,1,78,23.29a2.75,2.75,0,0,1,2.24-1,3.09,3.09,0,0,1,1.47.32,2.87,2.87,0,0,1,1.08,1ZM80.9,23.69a1.47,1.47,0,0,0-1.26.67,3,3,0,0,0-.48,1.77,2.89,2.89,0,0,0,.48,1.76,1.55,1.55,0,0,0,1.31.65,1.64,1.64,0,0,0,1.35-.65,2.87,2.87,0,0,0,.5-1.76,2.84,2.84,0,0,0-.51-1.79A1.68,1.68,0,0,0,80.9,23.69Z"/><path class="cls-1" d="M86.66,19.1h1.91V21H86.66Zm0,3.34h1.91v7.45H86.66Z"/><path class="cls-1" d="M94,22.25a3.93,3.93,0,0,1,2.91,1A3.82,3.82,0,0,1,98,26.16,3.85,3.85,0,0,1,97,29a4.54,4.54,0,0,1-5.81,0,3.85,3.85,0,0,1-1-2.87,3.85,3.85,0,0,1,1-2.87A3.92,3.92,0,0,1,94,22.25Zm0,1.38a1.71,1.71,0,0,0-1.41.69,2.9,2.9,0,0,0-.54,1.82A2.85,2.85,0,0,0,92.63,28a1.71,1.71,0,0,0,1.41.69A1.73,1.73,0,0,0,95.46,28,2.85,2.85,0,0,0,96,26.14a2.84,2.84,0,0,0-.53-1.82A1.71,1.71,0,0,0,94,23.63Z"/><path class="cls-1" d="M106.09,23.85a3,3,0,0,1,1.09-1.19,2.82,2.82,0,0,1,1.53-.4,2.22,2.22,0,0,1,1.84.83,3.77,3.77,0,0,1,.64,2.36v4.44h-1.91v-4a2.8,2.8,0,0,0-.31-1.5,1.09,1.09,0,0,0-1-.48,1.47,1.47,0,0,0-1.24.61,2.82,2.82,0,0,0-.45,1.7v3.7H104.4v-4a2.74,2.74,0,0,0-.32-1.5,1.09,1.09,0,0,0-1-.48,1.44,1.44,0,0,0-1.23.61,2.82,2.82,0,0,0-.45,1.7v3.7h-1.9V22.44h1.73v1.35a3.06,3.06,0,0,1,1.07-1.15,3,3,0,0,1,1.51-.38,2.31,2.31,0,0,1,1.36.42A2.56,2.56,0,0,1,106.09,23.85Z"/><path class="cls-1" d="M119.24,25.64v4.25h-1.69l0-1.21a3.32,3.32,0,0,1-1.1,1.05,3,3,0,0,1-1.42.35,2.5,2.5,0,0,1-1.81-.66,2.22,2.22,0,0,1-.69-1.69,2.05,2.05,0,0,1,1-1.86,5.55,5.55,0,0,1,2.94-.62h1v-.11a1.48,1.48,0,0,0-.48-1.18,2,2,0,0,0-1.36-.42,3.83,3.83,0,0,0-1,.15,5.55,5.55,0,0,0-1.1.45l0-1.36a6.76,6.76,0,0,1,1.31-.4,6.37,6.37,0,0,1,1.3-.13,3.24,3.24,0,0,1,2.45.81A3.62,3.62,0,0,1,119.24,25.64Zm-2.51.69a3.69,3.69,0,0,0-1.76.33,1,1,0,0,0-.59,1,1,1,0,0,0,.34.79,1.26,1.26,0,0,0,.88.31,1.7,1.7,0,0,0,1.3-.56,2,2,0,0,0,.51-1.44v-.4Z"/><path class="cls-1" d="M125.85,22.67l-.14,1.41a4.4,4.4,0,0,0-1-.38,3.45,3.45,0,0,0-1-.13,1.55,1.55,0,0,0-.79.17.57.57,0,0,0-.28.51c0,.33.39.67,1.17,1l.19.09a5,5,0,0,1,1.66,1,1.84,1.84,0,0,1,.45,1.27,2,2,0,0,1-.85,1.68A3.84,3.84,0,0,1,123,30a6.78,6.78,0,0,1-1.2-.1,6.44,6.44,0,0,1-1.11-.28l.11-1.47a4.86,4.86,0,0,0,1.08.4,5.33,5.33,0,0,0,1.11.13,1.63,1.63,0,0,0,.87-.19.6.6,0,0,0,.32-.53c0-.37-.5-.8-1.48-1.29l0,0a4.76,4.76,0,0,1-1.49-1,1.71,1.71,0,0,1-.39-1.14,1.92,1.92,0,0,1,.83-1.6,3.57,3.57,0,0,1,2.18-.61,4,4,0,0,1,.8.08C124.9,22.39,125.31,22.5,125.85,22.67Z"/><path class="cls-1" d="M133.41,25.35v2.56c0,1,.43,1.38,1,1.38s1.05-.43,1.05-1.38V25.35H136v2.52c0,1.33-.7,1.87-1.63,1.87s-1.56-.5-1.56-1.84V25.35Z"/><path class="cls-1" d="M140.21,29.67V25.35h.61l1.39,2.19a11.15,11.15,0,0,1,.77,1.4h0c-.05-.57-.07-1.1-.07-1.77V25.35h.53v4.32h-.57l-1.37-2.19a14.16,14.16,0,0,1-.81-1.45h0c0,.55.05,1.07.05,1.79v1.84Z"/><path class="cls-1" d="M148.34,28.31l-.45,1.36h-.57l1.47-4.32h.67l1.48,4.32h-.6l-.46-1.36Zm1.42-.43-.42-1.25c-.1-.28-.16-.54-.23-.79h0a7.59,7.59,0,0,1-.22.78l-.42,1.26Z"/><path class="cls-1" d="M154.78,29.67V25.35h.61l1.39,2.19a11.15,11.15,0,0,1,.77,1.4h0c0-.57-.07-1.1-.07-1.77V25.35H158v4.32h-.57l-1.37-2.19a14.16,14.16,0,0,1-.81-1.45h0c0,.55.05,1.07.05,1.79v1.84Z"/><path class="cls-1" d="M163.5,27.73v.42h-1.58v-.42Z"/><path class="cls-1" d="M171,27.77c0-.6-.07-1.33-.07-1.86h0c-.14.5-.32,1-.54,1.64l-.76,2.1h-.43l-.7-2.06c-.2-.61-.38-1.17-.5-1.68h0c0,.53,0,1.26-.09,1.91l-.11,1.85h-.53l.3-4.32h.71l.74,2.09c.18.53.33,1,.44,1.46h0c.11-.44.27-.91.46-1.46l.77-2.09h.71l.27,4.32h-.54Z"/><path class="cls-1" d="M176.4,28.31,176,29.67h-.58l1.47-4.32h.67L179,29.67h-.6l-.46-1.36Zm1.42-.43-.43-1.25c-.09-.28-.16-.54-.22-.79h0q-.09.39-.21.78l-.43,1.26Z"/><path class="cls-1" d="M182.83,29.67V25.35h.61l1.39,2.19a12.78,12.78,0,0,1,.78,1.4h0c-.05-.57-.06-1.1-.06-1.77V25.35h.52v4.32h-.56l-1.38-2.19a12.37,12.37,0,0,1-.8-1.45h0c0,.55,0,1.07,0,1.79v1.84Z"/><path class="cls-1" d="M191,28.31l-.45,1.36h-.58l1.47-4.32h.67l1.48,4.32H193l-.46-1.36Zm1.42-.43L192,26.63c-.09-.28-.16-.54-.22-.79h0q-.09.39-.21.78l-.43,1.26Z"/><path class="cls-1" d="M200.6,29.48a4,4,0,0,1-1.33.24,2.27,2.27,0,0,1-1.62-.57,2.24,2.24,0,0,1-.6-1.61,2.17,2.17,0,0,1,2.34-2.24,2.66,2.66,0,0,1,1.08.2l-.13.46a2.13,2.13,0,0,0-1-.19,1.62,1.62,0,0,0-1.74,1.74,1.59,1.59,0,0,0,1.67,1.75,1.8,1.8,0,0,0,.74-.12V27.85h-.88V27.4h1.43Z"/><path class="cls-1" d="M205.22,25.35v2.56c0,1,.43,1.38,1,1.38s1.05-.43,1.05-1.38V25.35h.57v2.52c0,1.33-.7,1.87-1.64,1.87s-1.55-.5-1.55-1.84V25.35Z"/><path class="cls-1" d="M212.51,28.31l-.45,1.36h-.58L213,25.35h.67l1.48,4.32h-.6L214,28.31Zm1.41-.43-.42-1.25a7.35,7.35,0,0,1-.22-.79h0a7.59,7.59,0,0,1-.22.78l-.42,1.26Z"/><rect class="cls-1" x="22.51" y="21.19" width="4.84" height="4.84" transform="translate(-9.39 24.54) rotate(-45)"/><polygon class="cls-1" points="24.93 20.08 24.93 20.08 24.93 20.08 24.93 20.08"/><path class="cls-1" d="M37.13,15.26a5.11,5.11,0,0,0-.45-.48l1.44-3.12a11.1,11.1,0,0,1-2.34.3h-.23a9.9,9.9,0,0,1-1.45-.1,10.39,10.39,0,0,1-3.05-.62l-.4-.2c-.22-.11-.88-.46-1.08-.59a14.09,14.09,0,0,0-4.72-1.19,9.54,9.54,0,0,0-4.55,1.19A11.67,11.67,0,0,1,14.41,12H14.1a8.77,8.77,0,0,1-1.15-.1,9.92,9.92,0,0,1-1.36-.27l.62,1.26,1,2c-.14.14-.28.29-.41.44A7.31,7.31,0,0,0,11,20,7.06,7.06,0,0,0,18,27.22a7.23,7.23,0,0,0,7-7.14h0a7.25,7.25,0,0,0,7,7.14A7.06,7.06,0,0,0,38.86,20,7.31,7.31,0,0,0,37.13,15.26ZM18,24.89a4.82,4.82,0,0,1,0-9.63,4.41,4.41,0,0,1,1.26.18,4.77,4.77,0,0,1,3.36,4.28c0,.12,0,.24,0,.36A4.73,4.73,0,0,1,18,24.89Zm14,0a4.72,4.72,0,0,1-4.63-4.81,2.75,2.75,0,0,1,0-.41,4.79,4.79,0,0,1,3.25-4.2,4.4,4.4,0,0,1,1.36-.21,4.82,4.82,0,0,1,0,9.63Z"/><polygon class="cls-1" points="24.93 18.73 24.93 18.73 24.93 18.73 24.93 18.73"/><path class="cls-1" d="M34.2,3.47v7.8h-.1a9.8,9.8,0,0,1-3.05-.69l-.4-.22c-.22-.13-.88-.51-1.08-.66C26.64,8.26,26.78,8.2,24.94,8.2s-2,.06-4.64,1.49a10.07,10.07,0,0,1-4.48,1.58h-.16V3.47Z"/><rect class="cls-1" x="9.26" width="31.79" height="3.47" rx="1.45"/><ellipse class="cls-1" cx="18.16" cy="20.43" rx="2.25" ry="2.27"/><ellipse class="cls-1" cx="31.78" cy="20.43" rx="2.25" ry="2.27"/><path class="cls-1" d="M49.94,30.05a5.77,5.77,0,0,1-1.26,2.59l-7.06,1.3L27.25,36.58v1.78a.91.91,0,0,1-.9.92H23.6a.92.92,0,0,1-.91-.92V36.58L8.32,33.94,1,32.39a4.57,4.57,0,0,1-1-2.34l10.28,3.08,14.58,2.68,14.57-2.68Z"/><path class="cls-1" d="M45.08,31l-4.32.84L24.74,35l16.61-5.48,3.32-1.06A8,8,0,0,1,45.08,31Z"/><path class="cls-1" d="M44.54,27.3l-4.2,1.5-15.6,5.52,16-8.07,1.4-.52A2,2,0,0,1,44.54,27.3Z"/><path class="cls-1" d="M4.4,31l4.32.84,16,3.12L8.13,29.52,4.58,28.3C4.49,29.42,4.41,29.93,4.4,31Z"/><path class="cls-1" d="M4.93,27.3l4.21,1.5,15.6,5.52L8.79,26.25l-1.54-.51A1.84,1.84,0,0,0,4.93,27.3Z"/><rect class="cls-1" x="9.18" y="0.03" width="1.55" height="6.88" rx="0.65"/><path class="cls-1" d="M9,6.38a2.66,2.66,0,0,1,.19-.54l.05-.09a.86.86,0,0,1,.81-.4,1.11,1.11,0,0,1,1,.69h0v0a1.84,1.84,0,0,1,.16.58h0a6.32,6.32,0,0,1,.1,1.57,4.47,4.47,0,0,1-.2,1.08,1.31,1.31,0,0,1-.27.49.62.62,0,0,1-.49.24v0a.48.48,0,0,0,.23-.16.61.61,0,0,1-.44.19v0h-.08v0a.61.61,0,0,0,.33-.34,1.69,1.69,0,0,0,.14-.45s0-.1,0-.14-.06.19-.1.28a1.64,1.64,0,0,1-.3.47.59.59,0,0,1-.51.21v0l.11-.05H9.77v0A.48.48,0,0,0,10,9.73a.58.58,0,0,1-.45.19v0H9.49v0a.57.57,0,0,0,.34-.34A2,2,0,0,0,10,9.08C10,9,10,9,10,8.92s-.06.18-.1.27a1.39,1.39,0,0,1-.3.47.59.59,0,0,1-.5.21v0a.48.48,0,0,0,.22-.13A.47.47,0,0,1,9,9.8v0a.56.56,0,0,0,.23-.16.57.57,0,0,1-.44.18H8.7v0A.56.56,0,0,0,9,9.4,2.35,2.35,0,0,0,9.18,9c0-.07,0-.13,0-.19A1.25,1.25,0,0,1,9.11,9a1.53,1.53,0,0,1-.29.47.63.63,0,0,1-.51.21v0a.57.57,0,0,0,.35-.31c.08-.14,0-.3,0-.45.07-.32.07-.65.11-1s.12-.74.16-1.09A3.2,3.2,0,0,1,9,6.38Z"/></g></g></svg>